{
  "asset": {
    "generator": "Sketchfab-12.68.0",
    "version": "2.0",
    "extras": {
      "author": "Robbie.Mclaughlin (https://sketchfab.com/Robbie.Mclaughlin)",
      "license": "CC-BY-4.0 (http://creativecommons.org/licenses/by/4.0/)",
      "source": "https://sketchfab.com/3d-models/bishop-05d96b692c5a412c996236496a08517c",
      "title": "bishop"
    }
  },
  "buffers": [
    {
      "byteLength": 233520,
      "uri": "scene.bin"
    }
  ],
  "bufferViews": [
    {
      "buffer": 0,
      "byteLength": 111360,
      "name": "floatBufferViews",
      "target": 34963
    },
    {
      "buffer": 0,
      "byteLength": 122160,
      "byteOffset": 111360,
      "byteStride": 12,
      "name": "floatBufferViews",
      "target": 34962
    }
  ],
  "accessors": [
    {
      "bufferView": 1,
      "componentType": 5126,
      "count": 5090,
      "max": [-135.336181640625, 945.1785888671875, 1441.4432373046875],
      "min": [-2025.7236328125, -945.208984375, -2924.63427734375],
      "type": "VEC3"
    },
    {
      "bufferView": 1,
      "byteOffset": 61080,
      "componentType": 5126,
      "count": 5090,
      "max": [0.9999838471412659, 0.9999838471412659, 1.0],
      "min": [-0.9999838471412659, -0.9999838471412659, -1.0],
      "type": "VEC3"
    },
    {
      "bufferView": 0,
      "componentType": 5125,
      "count": 27840,
      "type": "SCALAR"
    }
  ],
  "materials": [
    {
      "doubleSided": true,
      "name": "Scene_-_Root",
      "pbrMetallicRoughness": {
        "metallicFactor": 0.0,
        "roughnessFactor": 0.6
      }
    }
  ],
  "meshes": [
    {
      "name": "Object_0",
      "primitives": [
        {
          "attributes": {
            "NORMAL": 1,
            "POSITION": 0
          },
          "indices": 2,
          "material": 0,
          "mode": 4
        }
      ]
    }
  ],
  "nodes": [
    {
      "name": "bishop",
      "mesh": 0
    }
  ],
  "scenes": [
    {
      "name": "Sketchfab_Scene",
      "nodes": [0]
    }
  ],
  "scene": 0
}
